<?xml version="1.0" encoding="utf-8"?>
<!-- Generator: Adobe Illustrator 21.0.0, SVG Export Plug-In . SVG Version: 6.00 Build 0)  -->
<svg version="1.1" id="Layer_1" xmlns="http://www.w3.org/2000/svg" xmlns:xlink="http://www.w3.org/1999/xlink" x="0px" y="0px"
	 viewBox="0 0 374 150" style="enable-background:new 0 0 374 150;" xml:space="preserve">
<style type="text/css">
	.st0{fill:#52908C;}
</style>
<g id="Layer_2">
	<g>
		<path class="st0" d="M0,106.3l11.7-0.3l11.7-0.2l23.4-0.4c15.6-0.2,31.2-0.4,46.8-0.6c15.6-0.2,31.2-0.2,46.8-0.3l46.8-0.1
			l46.8,0.1c15.6,0.1,31.2,0.1,46.8,0.3c15.6,0.1,31.2,0.3,46.8,0.6l23.4,0.5l11.7,0.2l11.7,0.3l-11.7,0.3l-11.7,0.2l-23.4,0.5
			c-15.6,0.2-31.2,0.4-46.8,0.6c-15.6,0.2-31.2,0.2-46.8,0.3l-46.8,0.1l-46.8-0.1c-15.6-0.1-31.2-0.1-46.8-0.3
			c-15.6-0.1-31.2-0.3-46.8-0.6l-23.4-0.4l-11.7-0.2L0,106.3z"/>
	</g>
	<g>
		<path class="st0" d="M56.3,5.8l8-0.1l0.1,0l0,0.1l0.4,34.8l0.3,34.8l0.1,34.8l0.1,34.8l0,1l-1,0l-8,0l-1,0l0-1l0.1-35
			c0-11.7,0.1-23.3,0.2-34.9l0.3-34.8L56.3,5.8z M56.3,5.8l0.4,35.1L57,75.7c0.1,11.6,0.2,23.1,0.2,34.7l0.1,34.6l-1-1l8,0l-1,1
			l0.1-34.8l0.1-34.8l0.3-34.8l0.4-34.8l0.1,0.1L56.3,5.8z"/>
	</g>
	<g>
		<path class="st0" d="M309.7,5.8l8-0.1l0.1,0l0,0.1l0.4,34.8l0.3,34.8l0.1,34.8l0.1,34.8l0,1l-1,0l-8,0l-1,0l0-1l0.1-35
			c0-11.7,0.1-23.3,0.2-34.9l0.3-34.8L309.7,5.8z M309.7,5.8l0.4,35.1l0.3,34.8c0.1,11.6,0.2,23.1,0.2,34.7l0.1,34.6l-1-1l8,0l-1,1
			l0.1-34.8l0.1-34.8l0.3-34.8l0.4-34.8l0.1,0.1L309.7,5.8z"/>
	</g>
	<g>
		<path class="st0" d="M43.5,40.8c0.2,5.4,0.3,10.8,0.4,16.2C44,62.5,44,67.9,44,73.3c0,5.4,0,10.8-0.1,16.2l-0.1,8.1
			c-0.1,2.7-0.1,5.4-0.2,8.1c-0.1-2.7-0.2-5.4-0.2-8.1l-0.1-8.1C43,84.1,43,78.7,43,73.3c0-5.4,0-10.8,0.1-16.2
			C43.2,51.6,43.3,46.2,43.5,40.8z"/>
	</g>
	<g>
		<path class="st0" d="M36.7,49.9c0.2,4.7,0.3,9.3,0.4,14c0.1,4.7,0.1,9.3,0.1,14c0,4.7,0,9.3-0.1,14l-0.1,7c-0.1,2.3-0.1,4.7-0.2,7
			c-0.1-2.3-0.2-4.7-0.2-7l-0.1-7c-0.1-4.7-0.1-9.3-0.1-14c0-4.7,0-9.3,0.1-14C36.4,59.2,36.5,54.6,36.7,49.9z"/>
	</g>
	<g>
		<path class="st0" d="M29.9,57.7c0.2,4,0.3,8,0.4,12c0.1,4,0.1,8,0.1,12c0,4,0,8-0.1,12l-0.1,6c-0.1,2-0.1,4-0.2,6
			c-0.1-2-0.2-4-0.2-6l-0.1-6c-0.1-4-0.1-8-0.1-12c0-4,0-8,0.1-12C29.6,65.7,29.7,61.7,29.9,57.7z"/>
	</g>
	<g>
		<path class="st0" d="M23.1,64.5c0.2,3.4,0.3,6.9,0.4,10.3c0.1,3.4,0.1,6.9,0.1,10.3c0,3.4,0,6.9-0.1,10.3l-0.1,5.2
			c-0.1,1.7-0.1,3.4-0.2,5.2c-0.1-1.7-0.2-3.4-0.2-5.2l-0.1-5.2c-0.1-3.4-0.1-6.9-0.1-10.3c0-3.4,0-6.9,0.1-10.3
			C22.8,71.4,22.9,67.9,23.1,64.5z"/>
	</g>
	<g>
		<path class="st0" d="M16.3,70.6c0.2,2.9,0.3,5.9,0.4,8.8c0.1,2.9,0.1,5.9,0.1,8.8c0,2.9,0,5.9-0.1,8.8l-0.1,4.4
			c-0.1,1.5-0.1,2.9-0.2,4.4c-0.1-1.5-0.2-2.9-0.2-4.4L15.9,97c-0.1-2.9-0.1-5.9-0.1-8.8c0-2.9,0-5.9,0.1-8.8
			C16,76.5,16.1,73.5,16.3,70.6z"/>
	</g>
	<g>
		<path class="st0" d="M9.5,76.2c0.2,2.5,0.3,4.9,0.4,7.4C10,86.1,10,88.5,10,91c0,2.5,0,4.9-0.1,7.4l-0.1,3.7
			c-0.1,1.2-0.1,2.5-0.2,3.7c-0.1-1.2-0.2-2.5-0.2-3.7l-0.1-3.7C9,95.9,9,93.5,9,91c0-2.5,0-4.9,0.1-7.4C9.2,81.1,9.3,78.7,9.5,76.2
			z"/>
	</g>
	<g>
		<path class="st0" d="M2.7,80.9c0.4,4.2,0.5,8.3,0.5,12.5c0,4.1-0.1,8.3-0.5,12.4c-0.4-4.2-0.5-8.3-0.5-12.4
			C2.2,89.2,2.3,85.1,2.7,80.9z"/>
	</g>
	<g>
		<path class="st0" d="M50.3,29.2c0.2,6.4,0.3,12.8,0.4,19.2c0.1,6.4,0.1,12.8,0.1,19.2c0,6.4,0,12.8-0.1,19.2l-0.1,9.6
			c-0.1,3.2-0.1,6.4-0.2,9.6c-0.1-3.2-0.2-6.4-0.2-9.6l-0.1-9.6c-0.1-6.4-0.1-12.8-0.1-19.2c0-6.4,0-12.8,0.1-19.2
			C50,42,50.1,35.6,50.3,29.2z"/>
	</g>
	<g>
		<path class="st0" d="M152.5,99c0.4,1.1,0.5,2.3,0.5,3.4c0,1.1-0.1,2.3-0.5,3.4c-0.4-1.1-0.5-2.3-0.5-3.4
			C152,101.3,152.1,100.1,152.5,99z"/>
	</g>
	<g>
		<path class="st0" d="M145.6,96.1c0.4,1.6,0.5,3.2,0.5,4.8c0,1.6-0.1,3.2-0.5,4.8c-0.4-1.6-0.5-3.2-0.5-4.8
			C145.1,99.3,145.2,97.7,145.6,96.1z"/>
	</g>
	<g>
		<path class="st0" d="M138.8,93.7c0.4,2,0.5,4,0.5,6.1c0,2-0.1,4-0.5,6.1c-0.4-2-0.5-4-0.5-6.1C138.3,97.7,138.4,95.7,138.8,93.7z"
			/>
	</g>
	<g>
		<path class="st0" d="M131.9,90.3c0.4,2.6,0.5,5.2,0.5,7.8c0,2.6-0.1,5.2-0.5,7.8c-0.4-2.6-0.5-5.2-0.5-7.8
			C131.4,95.5,131.5,92.9,131.9,90.3z"/>
	</g>
	<g>
		<path class="st0" d="M125,86.5c0.4,3.2,0.5,6.4,0.5,9.7c0,3.2-0.1,6.4-0.5,9.7c-0.4-3.2-0.5-6.4-0.5-9.7
			C124.5,92.9,124.6,89.7,125,86.5z"/>
	</g>
	<g>
		<path class="st0" d="M118.1,81.7c0.4,4,0.5,8,0.5,12.1c0,4-0.1,8-0.5,12.1c-0.4-4-0.5-8-0.5-12.1
			C117.6,89.7,117.7,85.7,118.1,81.7z"/>
	</g>
	<g>
		<path class="st0" d="M111.3,77c0.2,2.4,0.3,4.8,0.4,7.2c0.1,2.4,0.1,4.8,0.1,7.2c0,2.4,0,4.8-0.1,7.2l-0.1,3.6
			c-0.1,1.2-0.1,2.4-0.2,3.6c-0.1-1.2-0.2-2.4-0.2-3.6l-0.1-3.6c-0.1-2.4-0.1-4.8-0.1-7.2c0-2.4,0-4.8,0.1-7.2
			C111,81.8,111.1,79.4,111.3,77z"/>
	</g>
	<g>
		<path class="st0" d="M104.4,71.3c0.2,2.9,0.3,5.8,0.4,8.6c0.1,2.9,0.1,5.8,0.1,8.6c0,2.9,0,5.8-0.1,8.6l-0.1,4.3
			c-0.1,1.4-0.1,2.9-0.2,4.3c-0.1-1.4-0.2-2.9-0.2-4.3l-0.1-4.3c-0.1-2.9-0.1-5.8-0.1-8.6c0-2.9,0-5.8,0.1-8.6
			C104.1,77.1,104.2,74.2,104.4,71.3z"/>
	</g>
	<g>
		<path class="st0" d="M97.5,64.7c0.2,3.4,0.3,6.8,0.4,10.3C98,78.4,98,81.8,98,85.2c0,3.4,0,6.9-0.1,10.3l-0.1,5.1
			c-0.1,1.7-0.1,3.4-0.2,5.1c-0.1-1.7-0.2-3.4-0.2-5.1l-0.1-5.1C97,92.1,97,88.7,97,85.2c0-3.4,0-6.8,0.1-10.3
			C97.2,71.5,97.3,68.1,97.5,64.7z"/>
	</g>
	<g>
		<path class="st0" d="M90.6,57.7c0.2,4,0.3,8,0.4,12c0.1,4,0.1,8,0.1,12c0,4,0,8-0.1,12l-0.1,6c-0.1,2-0.1,4-0.2,6
			c-0.1-2-0.2-4-0.2-6l-0.1-6c-0.1-4-0.1-8-0.1-12c0-4,0-8,0.1-12C90.3,65.7,90.4,61.7,90.6,57.7z"/>
	</g>
	<g>
		<path class="st0" d="M83.8,48.2c0.2,4.8,0.3,9.6,0.4,14.4c0.1,4.8,0.1,9.6,0.1,14.4c0,4.8,0,9.6-0.1,14.4L84,98.6
			c-0.1,2.4-0.1,4.8-0.2,7.2c-0.1-2.4-0.2-4.8-0.2-7.2l-0.1-7.2c-0.1-4.8-0.1-9.6-0.1-14.4c0-4.8,0-9.6,0.1-14.4
			C83.5,57.8,83.6,53,83.8,48.2z"/>
	</g>
	<g>
		<path class="st0" d="M76.9,38.5c0.2,5.6,0.3,11.2,0.4,16.8c0.1,5.6,0.1,11.2,0.1,16.8c0,5.6,0,11.2-0.1,16.8l-0.1,8.4
			c-0.1,2.8-0.1,5.6-0.2,8.4c-0.1-2.8-0.2-5.6-0.2-8.4L76.5,89c-0.1-5.6-0.1-11.2-0.1-16.8c0-5.6,0-11.2,0.1-16.8
			C76.6,49.7,76.7,44.1,76.9,38.5z"/>
	</g>
	<g>
		<path class="st0" d="M70,26.4c0.2,6.6,0.3,13.2,0.4,19.8c0.1,6.6,0.1,13.2,0.1,19.9L70.4,86l-0.1,9.9c-0.1,3.3-0.1,6.6-0.2,9.9
			c-0.1-3.3-0.2-6.6-0.2-9.9L69.6,86l-0.1-19.8c0-6.6,0-13.2,0.1-19.9C69.7,39.6,69.8,33,70,26.4z"/>
	</g>
	<g>
		<path class="st0" d="M159.4,101c0.4,0.8,0.5,1.6,0.5,2.4c0,0.8-0.1,1.6-0.5,2.4c-0.4-0.8-0.5-1.6-0.5-2.4
			C158.9,102.6,159,101.8,159.4,101z"/>
	</g>
	<g>
		<path class="st0" d="M297.2,38.4c0.2,5.6,0.3,11.2,0.4,16.8c0.1,5.6,0.1,11.2,0.1,16.9c0,5.6,0,11.2-0.1,16.8l-0.1,8.4
			c-0.1,2.8-0.1,5.6-0.2,8.4c-0.1-2.8-0.2-5.6-0.2-8.4l-0.1-8.4c-0.1-5.6-0.1-11.2-0.1-16.8c0-5.6,0-11.2,0.1-16.9
			C296.9,49.6,297,44,297.2,38.4z"/>
	</g>
	<g>
		<path class="st0" d="M290.3,48.2c0.2,4.8,0.3,9.6,0.4,14.4c0.1,4.8,0.1,9.6,0.1,14.4c0,4.8,0,9.6-0.1,14.4l-0.1,7.2
			c-0.1,2.4-0.1,4.8-0.2,7.2c-0.1-2.4-0.2-4.8-0.2-7.2l-0.1-7.2c-0.1-4.8-0.1-9.6-0.1-14.4c0-4.8,0-9.6,0.1-14.4
			C290,57.8,290.1,53,290.3,48.2z"/>
	</g>
	<g>
		<path class="st0" d="M283.4,57.2c0.2,4.1,0.3,8.1,0.4,12.2c0.1,4.1,0.1,8.1,0.1,12.2c0,4.1,0,8.1-0.1,12.2l-0.1,6.1
			c-0.1,2-0.1,4-0.2,6.1c-0.1-2-0.2-4.1-0.2-6.1l-0.1-6.1c-0.1-4-0.1-8.1-0.1-12.2c0-4.1,0-8.1,0.1-12.2
			C283.1,65.3,283.2,61.2,283.4,57.2z"/>
	</g>
	<g>
		<path class="st0" d="M276.5,64.7c0.2,3.4,0.3,6.8,0.4,10.3c0.1,3.4,0.1,6.8,0.1,10.3c0,3.4,0,6.9-0.1,10.3l-0.1,5.1
			c-0.1,1.7-0.1,3.4-0.2,5.1c-0.1-1.7-0.2-3.4-0.2-5.1l-0.1-5.1c-0.1-3.4-0.1-6.8-0.1-10.3c0-3.4,0-6.8,0.1-10.3
			C276.2,71.5,276.3,68.1,276.5,64.7z"/>
	</g>
	<g>
		<path class="st0" d="M269.7,71.2c0.2,2.9,0.3,5.8,0.4,8.7c0.1,2.9,0.1,5.8,0.1,8.7c0,2.9,0,5.8-0.1,8.7l-0.1,4.3
			c-0.1,1.4-0.1,2.9-0.2,4.3c-0.1-1.4-0.2-2.9-0.2-4.3l-0.1-4.3c-0.1-2.9-0.1-5.8-0.1-8.7c0-2.9,0-5.8,0.1-8.7
			C269.4,77,269.5,74.1,269.7,71.2z"/>
	</g>
	<g>
		<path class="st0" d="M262.8,77c0.2,2.4,0.3,4.8,0.4,7.2c0.1,2.4,0.1,4.8,0.1,7.2c0,2.4,0,4.8-0.1,7.2l-0.1,3.6
			c-0.1,1.2-0.1,2.4-0.2,3.6c-0.1-1.2-0.2-2.4-0.2-3.6l-0.1-3.6c-0.1-2.4-0.1-4.8-0.1-7.2c0-2.4,0-4.8,0.1-7.2
			C262.5,81.8,262.6,79.4,262.8,77z"/>
	</g>
	<g>
		<path class="st0" d="M255.9,81.7c0.4,4,0.5,8,0.5,12.1c0,4-0.1,8-0.5,12.1c-0.4-4-0.5-8-0.5-12.1
			C255.4,89.7,255.5,85.7,255.9,81.7z"/>
	</g>
	<g>
		<path class="st0" d="M249,86.5c0.4,3.2,0.5,6.4,0.5,9.7c0,3.2-0.1,6.4-0.5,9.7c-0.4-3.2-0.5-6.4-0.5-9.7
			C248.5,92.9,248.6,89.7,249,86.5z"/>
	</g>
	<g>
		<path class="st0" d="M242.1,90.3c0.4,2.6,0.5,5.2,0.5,7.8c0,2.6-0.1,5.2-0.5,7.8c-0.4-2.6-0.5-5.2-0.5-7.8
			C241.6,95.5,241.7,92.9,242.1,90.3z"/>
	</g>
	<g>
		<path class="st0" d="M235.2,93.8c0.4,2,0.5,4,0.5,6c0,2-0.1,4-0.5,6c-0.4-2-0.5-4-0.5-6C234.7,97.8,234.8,95.8,235.2,93.8z"/>
	</g>
	<g>
		<path class="st0" d="M228.3,96.1c0.4,1.6,0.5,3.2,0.5,4.8c0,1.6-0.1,3.2-0.5,4.8c-0.4-1.6-0.5-3.2-0.5-4.8
			C227.8,99.3,227.9,97.7,228.3,96.1z"/>
	</g>
	<g>
		<path class="st0" d="M221.4,99.7c0.4,1,0.5,2,0.5,3.1c0,1-0.1,2-0.5,3.1c-0.4-1-0.5-2-0.5-3.1C220.9,101.7,221,100.7,221.4,99.7z"
			/>
	</g>
	<g>
		<path class="st0" d="M304.1,26.2c0.2,6.6,0.3,13.3,0.4,19.9c0.1,6.6,0.1,13.3,0.1,19.9l-0.1,19.9l-0.1,10
			c-0.1,3.3-0.1,6.6-0.2,9.9c-0.1-3.3-0.2-6.6-0.2-9.9l-0.1-10L303.6,66c0-6.6,0-13.3,0.1-19.9C303.8,39.5,303.9,32.8,304.1,26.2z"
			/>
	</g>
	<g>
		<path class="st0" d="M214.6,101c0.4,0.8,0.5,1.6,0.5,2.4c0,0.8-0.1,1.6-0.5,2.4c-0.4-0.8-0.5-1.6-0.5-2.4
			C214.1,102.6,214.2,101.8,214.6,101z"/>
	</g>
	<g>
		<path class="st0" d="M364.5,76.2c0.2,2.5,0.3,4.9,0.4,7.4c0.1,2.5,0.1,4.9,0.1,7.4c0,2.5,0,4.9-0.1,7.4l-0.1,3.7
			c-0.1,1.2-0.1,2.5-0.2,3.7c-0.1-1.2-0.2-2.5-0.2-3.7l-0.1-3.7c-0.1-2.5-0.1-4.9-0.1-7.4c0-2.5,0-4.9,0.1-7.4
			C364.2,81.1,364.3,78.7,364.5,76.2z"/>
	</g>
	<g>
		<path class="st0" d="M357.7,71.2c0.2,2.9,0.3,5.8,0.4,8.7c0.1,2.9,0.1,5.8,0.1,8.7c0,2.9,0,5.8-0.1,8.7l-0.1,4.3
			c-0.1,1.4-0.1,2.9-0.2,4.3c-0.1-1.4-0.2-2.9-0.2-4.3l-0.1-4.3c-0.1-2.9-0.1-5.8-0.1-8.7c0-2.9,0-5.8,0.1-8.7
			C357.4,77,357.5,74.1,357.7,71.2z"/>
	</g>
	<g>
		<path class="st0" d="M350.9,64.5c0.2,3.4,0.3,6.9,0.4,10.3c0.1,3.4,0.1,6.9,0.1,10.3c0,3.4,0,6.9-0.1,10.3l-0.1,5.2
			c-0.1,1.7-0.1,3.4-0.2,5.2c-0.1-1.7-0.2-3.4-0.2-5.2l-0.1-5.2c-0.1-3.4-0.1-6.9-0.1-10.3c0-3.4,0-6.9,0.1-10.3
			C350.6,71.4,350.7,67.9,350.9,64.5z"/>
	</g>
	<g>
		<path class="st0" d="M344.1,57.7c0.2,4,0.3,8,0.4,12c0.1,4,0.1,8,0.1,12c0,4,0,8-0.1,12l-0.1,6c-0.1,2-0.1,4-0.2,6
			c-0.1-2-0.2-4-0.2-6l-0.1-6c-0.1-4-0.1-8-0.1-12c0-4,0-8,0.1-12C343.8,65.7,343.9,61.7,344.1,57.7z"/>
	</g>
	<g>
		<path class="st0" d="M337.3,49.9c0.2,4.7,0.3,9.3,0.4,14c0.1,4.7,0.1,9.3,0.1,14c0,4.7,0,9.3-0.1,14l-0.1,7
			c-0.1,2.3-0.1,4.7-0.2,7c-0.1-2.3-0.2-4.7-0.2-7l-0.1-7c-0.1-4.7-0.1-9.3-0.1-14c0-4.7,0-9.3,0.1-14
			C337,59.2,337.1,54.6,337.3,49.9z"/>
	</g>
	<g>
		<path class="st0" d="M330.5,40.8c0.2,5.4,0.3,10.8,0.4,16.2c0.1,5.4,0.1,10.8,0.1,16.2c0,5.4,0,10.8-0.1,16.2l-0.1,8.1
			c-0.1,2.7-0.1,5.4-0.2,8.1c-0.1-2.7-0.2-5.4-0.2-8.1l-0.1-8.1c-0.1-5.4-0.1-10.8-0.1-16.2c0-5.4,0-10.8,0.1-16.2
			C330.2,51.6,330.3,46.2,330.5,40.8z"/>
	</g>
	<g>
		<path class="st0" d="M323.7,30.5c0.2,6.3,0.3,12.6,0.4,18.8c0.1,6.3,0.1,12.6,0.1,18.8c0,6.3,0,12.6-0.1,18.8l-0.1,9.4
			c-0.1,3.1-0.1,6.3-0.2,9.4c-0.1-3.1-0.2-6.3-0.2-9.4l-0.1-9.4c-0.1-6.3-0.1-12.6-0.1-18.8c0-6.3,0-12.6,0.1-18.8
			C323.4,43.1,323.5,36.8,323.7,30.5z"/>
	</g>
	<g>
		<path class="st0" d="M371.3,80.9c0.4,4.2,0.5,8.3,0.5,12.5c0,4.1-0.1,8.3-0.5,12.4c-0.4-4.2-0.5-8.3-0.5-12.4
			C370.8,89.2,370.9,85.1,371.3,80.9z"/>
	</g>
	<g>
		<path class="st0" d="M0,83c6.1-4.5,11.9-9.4,17.5-14.5c5.6-5.1,10.9-10.5,15.9-16.2c4.9-5.7,9.5-11.8,13.4-18.2
			c2-3.2,3.7-6.6,5.3-10c1.6-3.4,2.9-7,4.1-10.6c-0.8,3.7-1.9,7.4-3.2,11c-1.4,3.6-3,7-4.9,10.4c-1.9,3.4-3.9,6.6-6.1,9.7
			c-2.2,3.1-4.6,6.1-7.1,9c-2.5,2.9-5.1,5.7-7.9,8.4c-2.7,2.7-5.6,5.3-8.5,7.7C12.7,74.6,6.6,79.1,0,83z"/>
	</g>
	<g>
		<path class="st0" d="M374,83c-6.6-3.9-12.7-8.4-18.6-13.4c-2.9-2.5-5.7-5-8.5-7.7c-2.7-2.7-5.3-5.5-7.9-8.4
			c-2.5-2.9-4.9-5.9-7.1-9c-2.2-3.1-4.3-6.4-6.1-9.7c-1.9-3.4-3.5-6.8-4.9-10.4c-1.3-3.6-2.5-7.3-3.2-11c1.2,3.6,2.5,7.2,4.1,10.6
			c1.6,3.4,3.4,6.8,5.3,10c3.9,6.4,8.5,12.5,13.4,18.2c4.9,5.7,10.3,11.1,15.9,16.2C362.1,73.6,367.9,78.5,374,83z"/>
	</g>
	<g>
		<path class="st0" d="M64.3,13.5c2.5,6.3,5.6,12.3,9,18.1c3.4,5.8,7.1,11.5,11.2,16.8c8.1,10.7,17.6,20.4,28.3,28.6
			c5.3,4.1,10.9,7.8,16.8,11.1c5.8,3.3,12,6,18.2,8.5l4.8,1.7l2.4,0.8l2.4,0.7l4.8,1.4l4.9,1.2c3.3,0.9,6.6,1.4,9.9,2
			c1.7,0.4,3.3,0.5,5,0.7l5,0.7c-3.4-0.3-6.8-0.4-10.1-0.9c-3.3-0.5-6.7-0.8-10-1.6l-5-1l-4.9-1.3l-2.5-0.7l-2.4-0.8l-4.8-1.6
			l-4.8-1.8c-0.8-0.3-1.6-0.6-2.4-0.9l-2.3-1.1c-1.5-0.7-3.1-1.4-4.6-2.2l-4.5-2.4c-5.9-3.3-11.7-7-17.1-11.1
			c-10.7-8.4-20.3-18.2-28.3-29.2C75.3,38.3,68.7,26.3,64.3,13.5z"/>
	</g>
	<g>
		<path class="st0" d="M309.7,13.5c-4.4,12.8-11,24.8-19,35.8c-7.9,11-17.6,20.8-28.3,29.2c-5.4,4.1-11.2,7.8-17.1,11.1l-4.5,2.4
			c-1.5,0.8-3.1,1.4-4.6,2.2l-2.3,1.1c-0.8,0.3-1.6,0.6-2.4,0.9l-4.8,1.8l-4.8,1.6l-2.4,0.8l-2.5,0.7l-4.9,1.3l-5,1
			c-3.3,0.7-6.7,1.1-10,1.6c-3.4,0.5-6.7,0.6-10.1,0.9l5-0.7c1.7-0.2,3.4-0.4,5-0.7c3.3-0.6,6.7-1.1,9.9-2l4.9-1.2l4.8-1.4l2.4-0.7
			l2.4-0.8l4.8-1.7c6.2-2.6,12.4-5.2,18.2-8.5c5.8-3.3,11.5-7,16.8-11.1c10.7-8.2,20.1-17.8,28.3-28.6c4.1-5.3,7.8-11,11.2-16.8
			C304.1,25.8,307.2,19.8,309.7,13.5z"/>
	</g>
	<g>
		<path class="st0" d="M43.6,145c2.8-0.8,5.5-1.3,8.3-1.6c2.8-0.3,5.5-0.4,8.3-0.4c2.8,0,5.6,0.1,8.3,0.4c2.8,0.3,5.6,0.7,8.3,1.6
			c-2.8,0.8-5.6,1.3-8.3,1.6c-2.8,0.3-5.5,0.4-8.3,0.4c-2.8,0-5.5-0.1-8.3-0.4C49.1,146.3,46.4,145.8,43.6,145z"/>
	</g>
	<g>
		<path class="st0" d="M297,145c2.8-0.8,5.5-1.3,8.3-1.6c2.8-0.3,5.5-0.4,8.3-0.4c2.8,0,5.5,0.1,8.3,0.4c2.8,0.3,5.6,0.7,8.3,1.6
			c-2.8,0.8-5.5,1.3-8.3,1.6c-2.8,0.3-5.5,0.4-8.3,0.4c-2.8,0-5.5-0.1-8.3-0.4C302.5,146.3,299.8,145.8,297,145z"/>
	</g>
</g>
</svg>
