<?xml version="1.0" encoding="utf-8"?>
<!-- Generator: Adobe Illustrator 21.0.0, SVG Export Plug-In . SVG Version: 6.00 Build 0)  -->
<svg version="1.1" id="Layer_2" xmlns="http://www.w3.org/2000/svg" xmlns:xlink="http://www.w3.org/1999/xlink" x="0px" y="0px"
	 viewBox="0 0 417 208" style="enable-background:new 0 0 417 208;" xml:space="preserve">
<style type="text/css">
	.st0{fill:#52908C;}
	.st1{fill:#CCD8D8;}
</style>
<g>
	<path class="st0" d="M77,40c16.4-0.6,32.7-1.2,49.1-1.6l24.6-0.7l24.6-0.6c16.4-0.4,32.7-0.8,49.1-1l24.6-0.4
		c8.2-0.2,16.4-0.3,24.6-0.4l0.1,0l0,0c2.6,0.4,5.2,1.1,7.7,1.9c2.5,0.8,4.9,1.7,7.3,2.9c4.7,2.2,9.2,5.2,12.8,9
		c3.7,3.8,6.3,8.5,7.6,13.6c1.3,5.1,1.3,10.4,0.4,15.5c0.1-1.3,0.3-2.6,0.3-3.9c0-1.3,0.1-2.6,0-3.9c-0.1-2.6-0.6-5.1-1.2-7.6
		c-1.4-4.9-4.1-9.5-7.8-13c-3.6-3.6-8-6.4-12.7-8.5c-4.7-2.1-9.7-3.6-14.7-4.4l0.1,0c-8.2,0.3-16.4,0.5-24.6,0.6L224.4,38
		c-16.4,0.4-32.7,0.7-49.1,1l-24.6,0.4l-24.6,0.3C109.8,39.9,93.4,40,77,40z"/>
</g>
<g>
	<path class="st0" d="M126,189l84.3-41.6l84.4-41.5l-0.2,0.1c1.9-1.8,3.6-3.9,5.2-6.1c1.6-2.2,3-4.4,4.3-6.8
		c1.3-2.4,2.3-4.8,3.1-7.4c0.9-2.5,1.3-5.2,1.6-7.8l0.9,0.7l-135.4,42.7l0.6-0.8c-0.4,6.1-1.8,12.1-3.9,17.8
		c-2.1,5.7-4.9,11.1-8.1,16.3c-3.2,5.2-6.8,10-10.7,14.6c-4,4.6-8.1,9-12.9,12.8c-2.4,1.9-4.9,3.6-7.6,5.1c-1.3,0.8-2.7,1.4-4,2.1
		l-2.1,0.9l-1,0.5l-1.1,0.4c-5.7,2.2-11.7,3.6-17.8,4.1c-6.1,0.5-12.2,0.1-18.2-0.9c-6-1-11.9-2.5-17.5-4.9
		c-5.6-2.4-10.9-5.6-15.5-9.6c-4.6-4-8.6-8.6-12.1-13.7l-2.5-3.8l-2.3-3.9l-2.1-4c-0.7-1.4-1.3-2.8-1.9-4.1
		c-2.4-5.6-4.1-11.5-5.3-17.4c-1.2-5.9-2-11.9-2.5-18c-0.5-6-0.6-12.1-0.4-18.1c0-1.5,0.1-3,0.2-4.5c0-0.8,0.1-1.5,0.2-2.3
		c0.1-0.7,0.1-1.5,0.2-2.2c0.2-3,0.6-6.1,1.2-9c1.2-6,3.4-11.8,6.6-17c1.6-2.6,3.5-5,5.6-7.3c1-1.1,2.2-2.1,3.3-3.2
		c1.2-1,2.4-1.9,3.7-2.8c1.2-0.9,2.6-1.6,3.9-2.4l2.1-1l1-0.5l1.1-0.4l2.1-0.9c0.7-0.3,1.4-0.5,2.2-0.7c1.4-0.5,2.9-0.9,4.4-1.3
		c5.9-1.5,12-2.1,18.1-2.2c1.5,0,3,0.1,4.6,0.1c1.5,0.1,3,0.3,4.5,0.4c1.5,0.2,3,0.4,4.5,0.8c1.5,0.4,3,0.6,4.4,1.1l2.2,0.7l2.1,0.8
		c1.4,0.5,2.8,1.3,4.2,1.9c2.7,1.5,5.3,3.1,7.6,5.1c4.7,3.9,8.5,8.8,11.5,14.1c1.5,2.7,2.8,5.4,3.9,8.2c1.1,2.8,2,5.7,2.8,8.6
		c1.6,5.8,2.6,11.8,3.4,17.8c0.9,6,1.2,12.1,0.7,18.1c-0.5,6-1.7,12.1-3.9,17.7c-2.2,5.6-5.7,10.9-10.3,14.9
		c-4.6,4-10.4,6.5-16.4,7.7l-2.2,0.4c-0.8,0.1-1.5,0.2-2.3,0.2l-2.3,0.2l-2.3,0c-3-0.1-6.1-0.4-9-1.4c-2.9-1-5.6-2.5-8-4.4
		c-2.4-1.9-4.3-4.3-6-6.8c-3.3-5.1-5.2-11-6.5-16.9c-1.2-5.9-1.8-11.9-1.6-18l0-0.2l0.2,0l59-11.8l-59,12.2l0.2-0.2
		c-0.1,6,0.5,12,1.8,17.8c1.3,5.8,3.2,11.6,6.5,16.6c1.6,2.5,3.6,4.8,5.9,6.6c2.3,1.9,4.9,3.3,7.7,4.2c2.8,1,5.8,1.3,8.7,1.3l2.2,0
		l2.2-0.2c0.7-0.1,1.5-0.1,2.2-0.2l2.2-0.4c5.8-1.2,11.4-3.7,15.9-7.5c4.5-3.9,7.8-9,10-14.5c2.2-5.5,3.3-11.4,3.8-17.4
		c0.4-6,0.1-11.9-0.8-17.8c-0.8-5.9-1.9-11.8-3.5-17.6c-0.8-2.9-1.7-5.7-2.8-8.5c-1.1-2.8-2.4-5.4-3.8-8c-2.9-5.2-6.6-9.9-11.2-13.6
		c-2.3-1.9-4.8-3.5-7.3-4.9c-1.3-0.6-2.6-1.3-4-1.8l-2.1-0.8L98.6,43C92.9,41.3,87,40.7,81,40.7c-5.9,0.1-11.9,0.7-17.6,2.2
		c-1.4,0.4-2.9,0.7-4.3,1.2c-0.7,0.2-1.4,0.5-2.1,0.7l-2,0.8l-1,0.4l-1,0.5l-2,1c-1.3,0.8-2.6,1.4-3.8,2.3c-1.2,0.8-2.4,1.7-3.5,2.6
		c-1.1,1-2.2,1.9-3.2,3c-2,2.1-3.9,4.5-5.4,7c-3.1,5-5.2,10.6-6.4,16.4c-0.6,2.9-1,5.8-1.2,8.8c-0.1,0.8-0.1,1.5-0.2,2.3
		c-0.1,0.7-0.1,1.5-0.2,2.2c-0.1,1.5-0.2,3-0.2,4.5c-0.3,11.9,0.5,24,2.9,35.6c1.2,5.8,2.9,11.6,5.2,17c0.6,1.3,1.2,2.7,1.9,4
		l2.1,3.9l2.3,3.8l2.4,3.7c3.4,4.9,7.3,9.4,11.8,13.3c4.5,3.8,9.6,7,15,9.3c5.4,2.3,11.2,3.9,17.1,4.8c5.9,1,11.8,1.3,17.7,0.9
		c11.8-0.9,23.3-5.3,32.6-12.7c4.7-3.6,8.8-8,12.7-12.5c3.9-4.5,7.4-9.3,10.6-14.4c3.1-5.1,5.9-10.4,7.9-15.9
		c2.1-5.5,3.5-11.4,3.9-17.3l0-0.6l0.6-0.2l135.6-42.3l1-0.3l-0.1,1.1c-0.3,2.7-0.8,5.5-1.7,8.1c-0.9,2.6-1.9,5.2-3.2,7.6
		c-1.3,2.4-2.8,4.8-4.4,7c-1.7,2.2-3.4,4.3-5.4,6.2l-0.1,0.1l-0.1,0l-84.6,41L126,189z"/>
</g>
<g>
	<path class="st0" d="M104.4,157.1c2.9,0.1,5.8-0.3,8.7-0.9c2.8-0.6,5.7-1.3,8.5-2.1c5.6-1.7,11.1-3.5,16.6-5.5
		c5.5-2,10.9-4.1,16.4-6.2l16.4-6.4c-5.1,2.8-10.4,5.4-15.8,7.8c-2.7,1.2-5.4,2.3-8.1,3.5c-2.7,1.1-5.5,2.1-8.2,3.2
		c-2.8,1-5.5,1.9-8.4,2.8c-2.8,0.8-5.6,1.7-8.5,2.4c-2.9,0.7-5.8,1.2-8.7,1.6C110.3,157.4,107.3,157.7,104.4,157.1z"/>
</g>
<g>
	<path class="st1" d="M164.5,98l75-14c0,0,7-24-23.5-38l-72.5,3C143.5,49,163,64.5,164.5,98z"/>
	<path class="st0" d="M164.5,98l37.6-7.5l18.6-3.7c6.2-1.2,12.4-2.5,18.6-3.6l-0.7,0.6c0.9-3.7,0.8-7.8,0-11.6
		c-0.8-3.9-2.4-7.5-4.6-10.8c-1.1-1.6-2.4-3.1-3.8-4.5c-1.4-1.4-2.9-2.7-4.5-3.9c-3.2-2.4-6.6-4.4-10.3-6L216,47l-36.3,1.4
		l-18.1,0.7l-18.1,0.6l0.4-1.2c3.5,3.1,6.4,6.7,8.9,10.6c2.5,3.9,4.7,7.9,6.3,12.2c0.4,1.1,0.8,2.2,1.2,3.2l0.6,1.6l0.5,1.7l0.9,3.3
		l0.7,3.4l0.3,1.7c0.1,0.6,0.2,1.1,0.2,1.7l0.5,3.4C164.3,93.4,164.3,95.7,164.5,98z M164.5,98c-0.2-2.2-0.4-4.5-0.7-6.8l-0.6-3.4
		c-0.1-0.6-0.2-1.1-0.3-1.7l-0.4-1.7l-0.8-3.3l-1-3.3l-0.5-1.6l-0.6-1.6c-0.4-1.1-0.8-2.1-1.2-3.2c-1.8-4.2-4-8.2-6.5-11.9
		c-2.5-3.7-5.5-7.3-8.8-10.1l-1.4-1.2l1.8-0.1l18.1-0.9l18.1-0.8L216,45l0.2,0l0.2,0.1c3.7,1.7,7.3,3.8,10.6,6.3
		c1.7,1.2,3.2,2.6,4.7,4.1c1.4,1.5,2.8,3.1,3.9,4.8c2.3,3.4,4,7.3,4.8,11.4c0.8,4.1,0.9,8.3-0.1,12.5l-0.1,0.5l-0.5,0.1
		c-6.3,1.2-12.6,2.3-18.9,3.4l-18.9,3.3L164.5,98z"/>
</g>
<g>
	<path class="st0" d="M391,46l-27.4,7.7l-27.9,7.6l-0.9,0.2l-0.2-0.9c-0.7-3.8-1.8-7.6-3.5-11c-1.7-3.4-4.1-6.5-7-9
		c-2.9-2.5-6.3-4.4-9.9-5.8c-3.6-1.3-7.5-2.1-11.3-2.3l-7.6-0.2l7.4-1.7l29.8-6.9l14.9-3.4l14.9-3.3l-0.1,0c3.9-1,7.9-0.3,11.4,1.2
		c0.9,0.4,1.7,0.9,2.5,1.4l2.3,1.7c0.7,0.7,1.4,1.3,2,2c0.4,0.3,0.6,0.7,0.9,1.1l0.9,1.1l0.9,1.1c0.3,0.4,0.5,0.8,0.7,1.2l1.5,2.4
		c0.4,0.8,0.8,1.7,1.2,2.6l0.6,1.3c0.2,0.4,0.4,0.9,0.5,1.3l0.9,2.7c0.3,0.9,0.7,1.7,0.9,2.7L391,46z M391,46l-1.7-5.4
		c-0.6-1.8-1.3-3.5-2-5.2c-0.2-0.4-0.4-0.9-0.6-1.3l-0.6-1.2c-0.4-0.8-0.8-1.7-1.3-2.5l-1.5-2.3c-0.3-0.4-0.5-0.8-0.8-1.2l-0.9-1.1
		c-2.3-2.9-5.1-5.4-8.5-6.8c-1.7-0.6-3.4-1.2-5.2-1.3c-1.8-0.2-3.7-0.1-5.3,0.4l-0.1,0l-14.8,3.7L333,25.4l-29.7,7.1l-0.2-2
		c4.2,0.2,8.1,1.1,11.9,2.5c3.8,1.4,7.4,3.5,10.5,6.2c3.1,2.7,5.6,6,7.4,9.6c1.8,3.7,3,7.6,3.5,11.6l-1-0.7l27.6-6.9L391,46z"/>
</g>
<g>
	<path class="st0" d="M335.5,60.5l0.6,5.3c0,1.8,0.1,3.6,0.1,5.4c-0.2,3.6-0.5,7.2-1.6,10.7c-1,3.5-2.6,6.8-4.8,9.8
		c-0.6,0.7-1.1,1.5-1.8,2.1l-1,1l-1,0.9c-1.4,1.2-2.9,2.3-4.7,3l-0.5-1.5c5.1-1.5,10.2-2.9,15.3-4.3l15.4-4.3
		c10.2-2.9,20.5-5.6,30.8-8.4l-0.2,0.1c1.4-0.9,2.8-2.1,4.1-3.3c1.3-1.2,2.5-2.5,3.6-3.9c2.3-2.8,4.3-5.7,5.8-9
		c0.4-0.8,0.7-1.6,1.1-2.5c0.4-0.8,0.7-1.6,1-2.5l0.9-2.6c0.2-0.9,0.4-1.7,0.7-2.6c0.5-1.7,0.7-3.5,1-5.3c0.3-1.8,0.3-3.6,0.5-5.4
		l0.4,0.3c-3.4,0.9-6.7,1.7-10.1,2.6c3.3-1,6.6-2.1,9.9-3.1l0.4-0.1l0,0.4c-0.1,1.8-0.1,3.7-0.3,5.5c-0.3,1.8-0.4,3.7-0.8,5.4
		c-0.2,0.9-0.4,1.8-0.6,2.7l-0.8,2.6c-0.2,0.9-0.6,1.7-0.9,2.6c-0.4,0.8-0.6,1.7-1.1,2.5c-1.5,3.4-3.5,6.5-5.8,9.4
		c-2.3,2.9-4.9,5.5-8,7.7l-0.1,0.1l-0.1,0c-10.2,2.9-20.5,5.8-30.7,8.6l-15.4,4.2c-5.1,1.4-10.3,2.8-15.4,4.2l-0.5-1.5
		c1.5-0.6,3-1.6,4.3-2.7l1-0.8l0.9-0.9c0.6-0.6,1.2-1.3,1.7-2c2.2-2.7,3.7-5.9,4.8-9.3c1.2-3.3,1.7-6.9,2-10.4
		c0.1-1.8,0.1-3.6,0.2-5.3L335.5,60.5z"/>
</g>
<g>
	<polygon class="st1" points="111,66.3 48.2,69 56,58.5 104.4,58.5 	"/>
	<path class="st0" d="M111,66.3l-31,2c-5.2,0.3-10.5,0.6-15.8,0.9c-5.3,0.3-10.6,0.5-15.9,0.8l-2.1,0.1l1.2-1.7l7.8-10.5l0.3-0.4
		l0.5,0l12.1,0.1l12.1,0.1c8.1,0.1,16.1,0.2,24.2,0.5l0.2,0l0.1,0.1l3.3,4.1C108.9,63.7,110,65.1,111,66.3z M111,66.3
		c-1.2-1.3-2.3-2.6-3.5-3.9l-3.4-3.7l0.2,0.1c-8.1,0.2-16.1,0.4-24.2,0.5l-12.1,0.1L56,59.5l0.8-0.4L49,69.6L48.2,68
		c5.2-0.2,10.3-0.4,15.5-0.6c5.2-0.2,10.3-0.3,15.5-0.4L95,66.7L111,66.3z"/>
</g>
<g>
	<polygon class="st1" points="119.7,87.2 42.2,99.2 44.6,85 116.2,78 	"/>
	<path class="st0" d="M119.7,87.2l-38.3,6.6C74.9,94.9,68.4,96,61.9,97l-19.5,3.2l-1.3,0.2l0.2-1.3l1.2-7.1l1.2-7.1l0.1-0.7l0.7-0.1
		l17.9-1.7c6-0.5,11.9-1.2,17.9-1.6l17.9-1.5c6-0.5,12-1,17.9-1.4l0.2,0l0.1,0.2L119.7,87.2z M119.7,87.2l-3.7-9.1l0.2,0.2
		c-6,0.7-11.9,1.4-17.9,2.1l-17.9,2c-6,0.7-11.9,1.2-17.9,1.9L44.7,86l0.9-0.8l-1.2,7.1l-1.2,7.1l-1.1-1.1l19.2-2.9
		c6.4-1,12.8-1.9,19.3-2.8L119.7,87.2z"/>
</g>
<g>
	<polygon class="st1" points="57.5,127.5 45.8,129.2 43.5,115 57.5,113 	"/>
	<path class="st0" d="M57.5,127.5c-3.6,0.8-7.6,1.7-11.6,2.5l-0.7,0.1l-0.1-0.7c-0.5-2.4-0.9-4.7-1.3-7.1c-0.4-2.4-0.8-4.7-1.2-7.1
		l-0.2-1l1-0.1c4.7-0.7,9.3-1.3,14-1.8l0.9-0.1l0,0.9c-0.1,2.5-0.2,5-0.3,7.4C57.8,122.9,57.7,125.2,57.5,127.5z M57.5,127.5
		l-0.5-7.4c-0.1-2.4-0.3-4.7-0.3-7.1l0.9,0.8c-4.6,0.8-9.3,1.5-14,2.2l0.8-1.1c0.4,2.4,0.7,4.8,1,7.1c0.3,2.4,0.6,4.8,0.9,7.2
		l-0.8-0.6C49.4,128.1,53.3,127.8,57.5,127.5z"/>
</g>
<g>
	<polygon class="st1" points="69.2,154 57.5,157.2 48.2,145 61.8,140.5 	"/>
	<path class="st0" d="M69.2,154c-3.6,1.2-7.5,2.7-11.6,3.9l-0.4,0.1l-0.3-0.4c-1.6-2-3.2-4-4.8-6c-1.6-2-3.1-4-4.7-6.1l-0.8-1.1
		l1.3-0.5c2.2-0.8,4.5-1.5,6.8-2.2c2.3-0.7,4.5-1.4,6.8-2.1l0.7-0.2l0.3,0.6c1.2,2.4,2.4,4.8,3.6,7.1L69.2,154z M69.2,154l-4.3-6.7
		c-1.4-2.2-2.7-4.3-3.9-6.4l1,0.4c-2.2,0.8-4.5,1.6-6.7,2.4c-2.2,0.8-4.5,1.6-6.7,2.3l0.5-1.5c1.5,2.1,3.1,4.1,4.6,6.2
		c1.5,2.1,3,4.1,4.5,6.2l-0.8-0.3C61.1,155.7,65,154.9,69.2,154z"/>
</g>
<g>
	<polygon class="st1" points="101.5,169.2 86,178 69.2,170.8 82.5,164.5 	"/>
	<path class="st0" d="M101.5,169.2c-2.4,1.4-4.8,3-7.3,4.6c-2.5,1.6-5.1,3.3-7.8,4.8l-0.3,0.2l-0.4-0.2c-2.8-1.1-5.6-2.3-8.4-3.5
		l-8.4-3.6l-2-0.9l2-0.9l6.6-3.1l6.7-3l0.3-0.1l0.3,0.1c3.3,0.9,6.5,1.9,9.7,2.8l4.6,1.4L101.5,169.2z M101.5,169.2l-5-1.1l-4.9-0.9
		c-3.2-0.6-6.2-1.2-9.3-1.9l0.6-0.1l-6.6,3.2l-6.6,3.2l0-1.8l8.4,3.7c2.8,1.3,5.6,2.5,8.3,3.8l-0.7,0c2.5-1.3,5.1-2.6,7.7-3.9
		C96,172.1,98.7,170.7,101.5,169.2z"/>
</g>
<g>
	<polygon class="st1" points="129.5,174.5 111,179 121.5,170.8 140.2,165.8 	"/>
	<path class="st0" d="M129.5,174.5c-1.5,0.5-3,0.9-4.5,1.4c-1.5,0.4-3,0.9-4.6,1.4c-3.1,0.9-6.1,1.7-9.2,2.6l-3.8,1l3.1-2.5l5.2-4.2
		l5.2-4.2l0.2-0.1l0.2-0.1c3.1-0.8,6.3-1.7,9.4-2.4c3.1-0.8,6.3-1.6,9.4-2.3l3.3-0.8l-2.6,2l-2.8,2.1c-0.9,0.7-1.9,1.4-2.8,2.1
		C133.2,171.8,131.4,173.2,129.5,174.5z M129.5,174.5c1.7-1.6,3.4-3.2,5.1-4.7c0.9-0.8,1.7-1.5,2.6-2.3l2.6-2.3l0.6,1.2
		c-3.1,0.9-6.2,1.8-9.3,2.7c-3.1,0.9-6.2,1.7-9.4,2.6l0.4-0.2l-5.3,4.1l-5.3,4l-0.7-1.5c3.1-0.7,6.1-1.3,9.3-1.9
		c1.5-0.3,3.1-0.6,4.7-0.9C126.3,175.1,127.9,174.8,129.5,174.5z"/>
</g>
<g>
	<polygon class="st1" points="125.6,121.1 90.5,130.8 88.8,120.8 125.6,114.2 	"/>
	<path class="st0" d="M125.6,121.1l-8.5,2.7c-2.9,0.9-5.8,1.8-8.7,2.7c-5.8,1.8-11.8,3.5-17.7,5.2l-1,0.3l-0.2-1l-1.8-9.9l-0.2-1
		l1-0.2l9.2-1.6l9.2-1.5l9.3-1.4c3.1-0.5,6.2-0.9,9.3-1.3l0.4-0.1l0,0.4C125.9,116.6,125.7,118.9,125.6,121.1z M125.6,121.1
		l-0.3-6.9l0.4,0.3c-3,0.7-6.1,1.3-9.2,2l-9.2,1.8l-9.2,1.8l-9.2,1.7l0.8-1.2l1.7,9.9l-1.2-0.8c5.8-1.5,11.6-3,17.4-4.5
		c2.9-0.7,5.9-1.4,8.9-2.1L125.6,121.1z"/>
</g>
<g>
	<polygon class="st1" points="123.5,139.5 108.5,145 99,141.5 126.8,130.8 	"/>
	<path class="st0" d="M123.5,139.5c-2.4,1.1-4.8,2.1-7.3,3.2c-2.5,1-5,2.1-7.5,3.1l-0.2,0.1l-0.3-0.1c-1.6-0.5-3.2-1.1-4.8-1.6
		l-4.8-1.7l-2.4-0.8l2.4-1c4.6-1.8,9.2-3.6,13.9-5.4c2.3-0.8,4.6-1.7,7-2.5c2.3-0.8,4.7-1.7,7-2.5l1.1-0.4l-0.4,1.1
		c-0.6,1.5-1.3,2.9-1.9,4.3C124.8,136.7,124.2,138.1,123.5,139.5z M123.5,139.5c0.4-1.5,0.9-3,1.4-4.5c0.5-1.5,0.9-3,1.4-4.4
		l0.7,0.7c-2.3,1-4.6,2-6.8,2.9c-2.3,1-4.6,1.9-6.9,2.8c-4.6,1.8-9.2,3.6-13.9,5.4l0-1.8l4.7,1.8c1.6,0.6,3.1,1.2,4.7,1.9l-0.5,0
		c2.5-0.8,5-1.6,7.5-2.4C118.3,141.1,120.9,140.2,123.5,139.5z"/>
</g>
<g>
	<polygon class="st1" points="290.8,98 183.5,148.2 188.2,128.8 293.5,91.8 	"/>
	<path class="st0" d="M290.8,98l-26.5,12.9l-26.7,12.8l-13.4,6.4l-13.4,6.3l-26.8,12.7l-1.8,0.9l0.5-2c1.6-6.5,3.1-13,4.7-19.5
		l0.1-0.5l0.5-0.2l26.3-9.2c8.8-3.1,17.6-6.1,26.4-9.1l26.4-9l26.4-8.9l0.3-0.1l-0.1,0.3L290.8,98z M290.8,98l2.6-6.3l0.2,0.2
		l-26.2,9.6l-26.2,9.5c-8.7,3.2-17.5,6.3-26.3,9.4l-26.3,9.3l0.6-0.7c-1.6,6.5-3.1,13-4.8,19.5l-1.4-1.1l26.8-12.5l13.4-6.2
		l13.4-6.2l26.9-12.3L290.8,98z"/>
</g>
<g>
	<polygon class="st1" points="280.5,49.5 237.5,52 229,46 271.5,43.5 	"/>
	<path class="st0" d="M280.5,49.5c-3.4,0.3-6.9,0.5-10.4,0.8l-10.7,1c-7.2,0.6-14.6,1.2-21.9,1.7l-0.3,0l-0.3-0.2l-8.5-6l-2.4-1.7
		l2.9-0.2c7.1-0.4,14.2-0.8,21.3-1.1l10.6-0.5c3.5-0.1,7.1-0.3,10.6-0.3l0.2,0l0.1,0.1l4.5,3.3C277.7,47.5,279.1,48.5,280.5,49.5z
		 M280.5,49.5c-1.6-1-3.2-2-4.7-2.9l-4.5-2.7l0.2,0.1c-3.5,0.3-7.1,0.6-10.6,0.9l-10.6,0.8c-7.1,0.5-14.2,1-21.2,1.4l0.5-1.8l8.5,6
		l-0.6-0.2c7-0.4,14-0.6,21.1-0.8l10.8-0.3C273.1,49.8,276.7,49.7,280.5,49.5z"/>
</g>
<g>
	<polygon class="st1" points="290.6,57.5 247.5,62.2 250.2,74.2 295,66.5 	"/>
	<path class="st0" d="M290.6,57.5L279.7,59l-10.8,1.5c-7.1,0.9-14.2,1.8-21.3,2.7l0.8-1.2l2.8,12l-1.1-0.8
		c7.5-1.3,14.9-2.5,22.4-3.7c7.5-1.2,15-2.4,22.5-3.4l-0.3,0.5L290.6,57.5z M290.6,57.5l4.7,8.9l0.2,0.4l-0.5,0.1
		c-7.4,1.5-14.9,3-22.3,4.4c-7.4,1.4-14.9,2.7-22.4,4l-0.9,0.2l-0.2-0.9l-2.7-12l-0.2-1.1l1.1-0.1c7.3-0.7,14.6-1.4,21.8-2.1
		l10.8-0.9L290.6,57.5z"/>
</g>
<g>
	<polygon class="st1" points="368,27 334,36 330,33 361,23.8 	"/>
	<path class="st0" d="M368,27c-2.6,0.8-5.4,1.6-8.1,2.4l-8.4,2.6c-5.7,1.7-11.5,3.4-17.3,5l-0.5,0.1l-0.4-0.3l-4-3l-1.6-1.2l1.9-0.6
		c5.2-1.5,10.3-3,15.5-4.5c5.2-1.4,10.4-2.9,15.6-4.2l0.2,0l0.1,0.1l3.5,1.9C365.8,25.9,366.9,26.5,368,27z M368,27
		c-1.2-0.6-2.5-1-3.7-1.5l-3.5-1.4l0.3,0c-5.1,1.8-10.2,3.4-15.4,5.1c-5.1,1.6-10.3,3.2-15.5,4.8l0.3-1.8l4,3l-0.8-0.2
		c5.5-1.5,11-2.7,16.7-4l8.6-1.9C362,28.4,365,27.7,368,27z"/>
</g>
<g>
	<polygon class="st1" points="377,41 344.2,50.2 339.5,43.5 371.5,34 	"/>
	<path class="st0" d="M377,41l-15.9,5.1c-5.4,1.7-11,3.4-16.6,5.1l-0.7,0.2l-0.4-0.6l-4.8-6.7l-0.8-1.1l1.3-0.4
		c5.3-1.6,10.7-3.1,16-4.6l8-2.2c2.7-0.7,5.4-1.4,8.1-2.1l0.3-0.1l0.2,0.2L377,41z M377,41c-2-2.4-4-4.6-5.8-6.7l0.4,0.1
		c-2.6,0.9-5.3,1.8-7.9,2.6l-8,2.5c-5.3,1.7-10.6,3.3-16,4.9l0.5-1.5l4.7,6.8l-1-0.4c5.3-1.5,10.7-2.8,16.2-4.2L377,41z"/>
</g>
<g>
	<polygon class="st1" points="379.6,71.1 343.2,82.2 345.8,70.8 386.8,59 	"/>
	<path class="st0" d="M379.6,71.1c-2.9,1.1-5.9,2.1-8.9,3.1c-3,1-6,2-9,3c-6,2-12.1,4-18.2,5.9l-1.5,0.5l0.3-1.6
		c0.8-3.8,1.6-7.7,2.4-11.5l0.1-0.6l0.6-0.2l10.3-2.9c3.4-1,6.8-1.9,10.3-2.9c6.8-1.9,13.7-3.7,20.6-5.5l1.3-0.3l-0.7,1.1l-3.8,6
		C382.1,67.2,380.9,69.2,379.6,71.1z M379.6,71.1c1.1-2.1,2.2-4.2,3.4-6.2l3.3-6.1l0.6,0.8c-6.8,2.1-13.6,4.2-20.4,6.2
		c-3.4,1-6.8,2-10.2,3L346,71.7l0.7-0.7c-0.9,3.8-1.7,7.7-2.6,11.5l-1.2-1.1c6-1.8,12.1-3.5,18.2-5.3c3-0.9,6.1-1.7,9.2-2.5
		C373.4,72.7,376.5,71.9,379.6,71.1z"/>
</g>
</svg>
